<?xml version="1.0" standalone="no"?>
<!DOCTYPE svg PUBLIC "-//W3C//DTD SVG 20010904//EN"
 "http://www.w3.org/TR/2001/REC-SVG-20010904/DTD/svg10.dtd">
<svg version="1.0" xmlns="http://www.w3.org/2000/svg"
 width="559.000000pt" height="559.000000pt" viewBox="0 0 559.000000 559.000000"
 preserveAspectRatio="xMidYMid meet">
<metadata>
Created by potrace 1.11, written by Peter Selinger 2001-2013
</metadata>
<g transform="translate(0.000000,559.000000) scale(0.100000,-0.100000)"
fill="#000000" stroke="none">
<path d="M5210 5565 c-25 -7 -99 -27 -165 -44 -66 -17 -136 -39 -155 -48 -19
-8 -89 -35 -155 -58 -66 -24 -178 -64 -250 -89 -71 -26 -150 -54 -175 -63 -51
-17 -444 -189 -512 -224 -26 -13 -35 -17 -248 -123 -107 -54 -220 -111 -250
-128 -130 -72 -317 -183 -336 -200 -11 -10 -23 -18 -27 -18 -4 0 -30 -15 -59
-33 -29 -18 -66 -39 -83 -47 -78 -37 -161 -106 -311 -256 -90 -89 -164 -170
-164 -178 0 -9 -6 -16 -13 -16 -8 0 -20 -12 -28 -27 -8 -16 -24 -43 -36 -61
-12 -18 -27 -50 -34 -70 -6 -20 -29 -60 -50 -89 -22 -29 -39 -58 -39 -65 0 -7
-12 -31 -26 -52 -47 -69 -82 -175 -139 -426 -31 -135 -44 -199 -45 -215 -7
-125 1 -368 16 -495 3 -30 7 -64 8 -75 1 -11 5 -25 8 -31 4 -6 9 -21 12 -35 9
-47 35 -110 60 -142 13 -17 28 -45 32 -62 6 -28 42 -104 55 -115 10 -10 3 -65
-14 -104 -9 -21 -17 -42 -17 -47 0 -5 -4 -9 -8 -9 -5 0 -15 -12 -23 -27 -8
-16 -18 -31 -23 -34 -4 -4 -9 -21 -11 -39 -1 -23 -10 -37 -29 -49 -14 -8 -26
-21 -26 -28 0 -7 -4 -13 -10 -13 -5 0 -7 -6 -4 -13 3 -8 -2 -20 -10 -27 -9 -7
-14 -16 -11 -20 2 -4 -7 -13 -20 -20 -16 -9 -30 -29 -37 -54 -15 -52 -45 -96
-65 -96 -9 0 -14 3 -10 6 3 4 -3 24 -13 45 -11 21 -20 44 -20 51 0 7 -7 26
-15 42 -8 15 -13 32 -10 36 3 5 1 11 -5 15 -19 12 -95 184 -85 193 2 3 0 13
-6 23 -7 13 -6 19 1 19 6 0 8 5 5 10 -6 10 20 60 139 280 43 78 63 136 82 230
4 19 6 89 6 155 -1 101 -6 133 -28 200 -14 44 -27 88 -29 97 -2 9 -9 26 -15
37 -6 12 -7 21 -3 21 4 0 4 4 -2 8 -5 4 -19 23 -29 42 -33 60 -198 211 -234
215 -24 3 -74 24 -92 39 -8 7 -36 19 -63 26 -26 7 -50 17 -53 22 -6 9 -47 29
-71 34 -7 1 -26 12 -43 24 -16 12 -34 19 -39 16 -5 -3 -14 1 -21 9 -7 8 -19
15 -26 15 -8 0 -57 20 -110 45 -52 25 -96 45 -98 45 -3 0 -44 23 -93 51 -143
83 -242 138 -342 190 -29 15 -60 34 -70 42 -9 8 -25 17 -37 21 -11 3 -34 19
-50 35 -22 21 -34 27 -45 20 -11 -7 -7 -15 24 -42 20 -19 37 -37 37 -41 0 -4
13 -26 29 -49 32 -47 63 -128 92 -233 10 -39 25 -87 34 -107 8 -20 12 -37 9
-37 -4 0 -2 -6 4 -12 5 -7 13 -33 16 -58 3 -25 8 -56 11 -70 8 -38 17 -189 15
-250 -1 -30 -1 -71 -1 -90 1 -54 1 -98 1 -180 0 -130 7 -203 24 -280 17 -76
20 -90 32 -145 16 -75 78 -154 178 -228 76 -55 112 -77 129 -77 6 0 18 -6 26
-14 16 -14 234 -72 281 -75 14 -1 63 -4 110 -6 108 -5 145 -16 145 -41 1 -10
4 -24 7 -29 3 -6 9 -37 13 -70 4 -33 11 -64 15 -70 4 -5 7 -17 8 -25 0 -8 3
-40 7 -70 4 -30 9 -75 12 -100 7 -68 6 -349 -2 -400 -3 -25 -7 -67 -8 -93 -2
-30 -8 -51 -17 -57 -8 -5 -12 -10 -8 -10 4 0 0 -16 -8 -35 -8 -19 -12 -35 -9
-35 3 0 0 -10 -7 -23 -7 -12 -13 -24 -14 -27 -1 -8 -44 -117 -63 -165 -27 -66
-31 -77 -26 -86 4 -5 1 -9 -4 -9 -6 0 -11 -5 -11 -11 0 -7 -20 -54 -44 -105
-25 -52 -42 -94 -38 -94 4 0 2 -4 -4 -8 -6 -4 -24 -35 -39 -70 -21 -48 -25
-66 -17 -74 7 -7 12 -24 12 -39 0 -38 34 -76 75 -83 19 -4 35 -11 35 -16 0
-11 45 -6 62 7 7 6 23 14 36 17 12 4 22 12 22 17 0 6 8 9 17 6 20 -4 78 21 69
30 -7 7 34 83 45 83 4 0 10 18 14 40 4 22 10 40 14 40 13 0 31 49 25 65 -4 8
-1 15 5 15 6 0 11 9 11 20 0 10 7 23 17 28 9 5 17 20 19 33 1 13 3 24 4 24 1
0 3 8 5 18 2 10 7 26 11 35 4 9 9 27 10 40 2 12 12 34 23 49 12 14 21 31 21
37 0 7 5 17 12 24 13 13 17 28 25 84 3 21 10 38 16 38 6 0 7 3 4 7 -4 3 -3 11
2 17 14 18 64 166 58 172 -2 3 5 15 18 28 23 24 79 126 68 126 -4 0 -2 5 5 12
7 7 12 22 12 34 0 12 7 24 15 28 20 7 37 50 41 101 1 22 7 41 13 43 6 2 11 10
11 18 0 8 8 22 18 32 9 10 18 28 19 40 2 12 12 31 23 42 11 11 25 40 31 65 6
24 17 50 25 56 8 6 14 17 14 23 0 6 13 31 29 55 17 25 28 48 25 53 -6 9 14 48
24 47 22 -4 34 3 28 16 -3 8 -2 15 3 15 4 0 15 18 24 40 13 33 20 40 44 41 33
2 23 2 103 -5 218 -20 388 -25 455 -13 22 3 54 9 70 12 17 3 46 8 65 11 50 8
284 86 288 96 2 4 9 8 17 8 7 0 18 7 25 15 7 8 16 13 20 10 4 -2 20 9 35 25
16 17 34 30 41 30 7 0 14 3 16 8 2 4 32 27 68 52 36 24 67 48 68 52 2 4 8 8
13 8 25 0 186 130 275 222 84 86 214 260 214 285 0 4 8 15 18 26 16 19 16 20
-10 40 -22 17 -43 20 -125 21 -121 2 -129 4 -185 55 -60 55 -87 111 -96 198
-14 131 -6 217 29 317 42 120 67 156 133 192 66 36 198 7 254 -56 12 -14 33
-36 45 -50 13 -14 28 -38 34 -55 6 -16 14 -39 18 -50 4 -11 8 -50 10 -86 3
-99 18 -113 56 -51 31 49 34 58 76 192 54 176 71 243 72 270 0 48 9 108 19
126 6 11 20 39 31 64 19 43 24 62 37 140 10 66 11 69 34 125 4 11 13 34 18 50
6 17 13 39 18 50 4 11 8 25 10 30 1 6 21 62 44 125 23 63 48 133 56 155 8 22
30 70 50 108 19 37 32 67 29 67 -4 0 2 12 13 28 24 34 87 158 97 192 4 14 21
44 36 67 16 23 29 44 29 48 0 3 31 53 69 111 39 57 96 152 128 212 36 68 76
126 110 160 29 30 53 56 53 58 0 9 -98 1 -140 -11z"/>
</g>
</svg>
